<svg width="182" height="91" viewBox="0 0 182 91" fill="none" xmlns="http://www.w3.org/2000/svg">
<g clip-path="url(#clip0_430_10871)">
<rect width="180.562" height="89.8362" transform="translate(0.68457 0.778809)" fill="white"/>
<rect x="0.681641" y="0.778809" width="180.562" height="89.8362" fill="white"/>
<path d="M76.3287 55.8375V57.8591H68.283V55.8375H76.3287ZM70.628 52.1179H73.0134V66.9155C73.0134 67.5893 73.1111 68.0947 73.3065 68.4316C73.5086 68.7618 73.7647 68.9841 74.0747 69.0987C74.3914 69.2065 74.7249 69.2604 75.0753 69.2604C75.3381 69.2604 75.5537 69.2469 75.7222 69.22C75.8907 69.1863 76.0254 69.1593 76.1265 69.1391L76.6117 71.2819C76.45 71.3426 76.2242 71.4032 75.9345 71.4639C75.6447 71.5313 75.2775 71.5649 74.8327 71.5649C74.1589 71.5649 73.4985 71.4201 72.8517 71.1303C72.2115 70.8406 71.6792 70.3992 71.2547 69.8062C70.8369 69.2132 70.628 68.4653 70.628 67.5623V52.1179ZM86.2594 71.6862C84.7634 71.6862 83.473 71.3561 82.3882 70.6957C81.31 70.0286 80.4778 69.0987 79.8916 67.906C79.3121 66.7066 79.0223 65.3117 79.0223 63.7215C79.0223 62.1312 79.3121 60.7296 79.8916 59.5167C80.4778 58.2971 81.2932 57.3469 82.3376 56.6664C83.3888 55.979 84.6152 55.6354 86.0168 55.6354C86.8254 55.6354 87.6239 55.7702 88.4123 56.0397C89.2007 56.3092 89.9183 56.7472 90.5652 57.3537C91.2121 57.9534 91.7276 58.7485 92.1117 59.7391C92.4957 60.7296 92.6878 61.9493 92.6878 63.398V64.4088H80.7204V62.3468H90.262C90.262 61.4708 90.0868 60.6892 89.7364 60.0019C89.3927 59.3146 88.9008 58.7721 88.2607 58.3745C87.6273 57.977 86.8793 57.7782 86.0168 57.7782C85.0667 57.7782 84.2446 58.014 83.5505 58.4857C82.8632 58.9507 82.3343 59.5571 81.9636 60.3051C81.593 61.0531 81.4077 61.8549 81.4077 62.7107V64.0853C81.4077 65.2578 81.6099 66.2517 82.0142 67.0671C82.4252 67.8757 82.9946 68.4922 83.7224 68.9168C84.4501 69.3345 85.2958 69.5434 86.2594 69.5434C86.886 69.5434 87.4521 69.4558 87.9574 69.2806C88.4696 69.0987 88.9109 68.8292 89.2815 68.472C89.6521 68.1082 89.9385 67.6567 90.1407 67.1176L92.4452 67.7645C92.2026 68.5461 91.795 69.2335 91.2222 69.8264C90.6494 70.4127 89.9419 70.8709 89.0996 71.2011C88.2573 71.5245 87.3106 71.6862 86.2594 71.6862ZM96.3164 71.3628V55.8375H98.6209V58.1825H98.7827C99.0657 57.4143 99.5778 56.791 100.319 56.3126C101.06 55.8342 101.896 55.595 102.826 55.595C103.001 55.595 103.22 55.5983 103.483 55.6051C103.745 55.6118 103.944 55.6219 104.079 55.6354V58.0612C103.998 58.041 103.813 58.0107 103.523 57.9702C103.24 57.9231 102.94 57.8995 102.624 57.8995C101.869 57.8995 101.195 58.0578 100.602 58.3745C100.016 58.6845 99.5508 59.1158 99.2072 59.6683C98.8703 60.2141 98.7018 60.8374 98.7018 61.5382V71.3628H96.3164ZM109.292 62.0234V71.3628H106.907V55.8375H109.211V58.2634H109.413C109.777 57.475 110.33 56.8416 111.071 56.3631C111.812 55.878 112.769 55.6354 113.942 55.6354C114.993 55.6354 115.912 55.851 116.701 56.2823C117.489 56.7068 118.102 57.3537 118.54 58.2229C118.978 59.0854 119.197 60.1771 119.197 61.4978V71.3628H116.812V61.6595C116.812 60.4399 116.495 59.4897 115.862 58.8092C115.229 58.1219 114.359 57.7782 113.254 57.7782C112.493 57.7782 111.812 57.9433 111.212 58.2735C110.619 58.6037 110.151 59.0854 109.808 59.7189C109.464 60.3523 109.292 61.1204 109.292 62.0234ZM128.125 71.7267C127.141 71.7267 126.248 71.5414 125.446 71.1707C124.645 70.7934 124.008 70.251 123.536 69.5434C123.064 68.8292 122.829 67.9666 122.829 66.9559C122.829 66.0664 123.004 65.3454 123.354 64.7929C123.705 64.2336 124.173 63.7956 124.759 63.4789C125.345 63.1622 125.992 62.9263 126.7 62.7713C127.414 62.6096 128.132 62.4816 128.853 62.3873C129.796 62.266 130.561 62.175 131.147 62.1144C131.74 62.047 132.171 61.9358 132.441 61.7808C132.717 61.6258 132.855 61.3563 132.855 60.9722V60.8913C132.855 59.8941 132.582 59.1191 132.037 58.5666C131.498 58.014 130.679 57.7378 129.58 57.7378C128.442 57.7378 127.549 57.9871 126.902 58.4857C126.255 58.9844 125.8 59.5167 125.537 60.0827L123.273 59.2741C123.678 58.3307 124.217 57.5963 124.891 57.0707C125.571 56.5383 126.312 56.1677 127.114 55.9588C127.923 55.7432 128.718 55.6354 129.5 55.6354C129.998 55.6354 130.571 55.696 131.218 55.8173C131.872 55.9319 132.502 56.1711 133.108 56.535C133.721 56.8988 134.23 57.448 134.634 58.1825C135.039 58.917 135.241 59.9008 135.241 61.1339V71.3628H132.855V69.2604H132.734C132.572 69.5973 132.303 69.9578 131.925 70.3419C131.548 70.726 131.046 71.0528 130.419 71.3224C129.793 71.5919 129.028 71.7267 128.125 71.7267ZM128.489 69.5839C129.432 69.5839 130.227 69.3986 130.874 69.0279C131.528 68.6573 132.02 68.1789 132.35 67.5927C132.687 67.0064 132.855 66.3899 132.855 65.743V63.5597C132.754 63.681 132.532 63.7922 132.188 63.8933C131.851 63.9876 131.46 64.0719 131.016 64.146C130.578 64.2134 130.15 64.274 129.732 64.3279C129.321 64.3751 128.987 64.4155 128.731 64.4492C128.112 64.5301 127.532 64.6615 126.993 64.8434C126.461 65.0186 126.029 65.2848 125.699 65.6419C125.376 65.9923 125.214 66.4707 125.214 67.0772C125.214 67.906 125.521 68.5327 126.134 68.9572C126.754 69.375 127.539 69.5839 128.489 69.5839Z" fill="url(#paint0_linear_430_10871)"/>
<path d="M57.6511 43.2233C56.3573 43.2233 55.2152 42.8965 54.2246 42.2429C53.2341 41.5825 52.4592 40.6526 51.8999 39.4532C51.3406 38.247 51.061 36.8219 51.061 35.1777C51.061 33.547 51.3406 32.132 51.8999 30.9325C52.4592 29.7331 53.2375 28.8066 54.2347 28.1529C55.232 27.4993 56.3843 27.1725 57.6915 27.1725C58.7023 27.1725 59.5008 27.341 60.087 27.6779C60.68 28.0081 61.1315 28.3854 61.4415 28.8099C61.7582 29.2277 62.0041 29.5714 62.1793 29.8409H62.3815V22.1996H64.7668V42.8999H62.4623V40.5145H62.1793C62.0041 40.7975 61.7548 41.1547 61.4313 41.5859C61.1079 42.0104 60.6463 42.3912 60.0466 42.7281C59.4469 43.0583 58.6484 43.2233 57.6511 43.2233ZM57.9745 41.0805C58.9314 41.0805 59.74 40.8312 60.4004 40.3326C61.0607 39.8272 61.5627 39.1298 61.9064 38.2403C62.2501 37.3441 62.4219 36.3098 62.4219 35.1373C62.4219 33.9783 62.2534 32.9641 61.9165 32.0949C61.5796 31.2189 61.0809 30.5383 60.4206 30.0532C59.7602 29.5613 58.9449 29.3153 57.9745 29.3153C56.9638 29.3153 56.1215 29.5747 55.4477 30.0936C54.7806 30.6057 54.2785 31.3031 53.9416 32.1859C53.6114 33.0619 53.4464 34.0457 53.4464 35.1373C53.4464 36.2424 53.6148 37.2464 53.9517 38.1493C54.2954 39.0455 54.8008 39.7598 55.4679 40.2921C56.1417 40.8177 56.9773 41.0805 57.9745 41.0805ZM71.0032 48.7219C70.5989 48.7219 70.2384 48.6882 69.9217 48.6208C69.605 48.5602 69.386 48.4995 69.2647 48.4389L69.8712 46.3365C70.4507 46.4847 70.9628 46.5386 71.4075 46.4982C71.8523 46.4578 72.2465 46.259 72.5901 45.9019C72.9405 45.5515 73.2606 44.9821 73.5503 44.1937L73.9951 42.9808L68.254 27.3747H70.8415L75.1271 39.7463H75.2888L79.5745 27.3747H82.162L75.5719 45.164C75.2754 45.9659 74.9081 46.6296 74.4701 47.1552C74.0321 47.6875 73.5234 48.0817 72.9439 48.3378C72.3711 48.5938 71.7242 48.7219 71.0032 48.7219ZM89.4066 43.2638C88.4228 43.2638 87.53 43.0785 86.7281 42.7079C85.9262 42.3305 85.2895 41.7881 84.8178 41.0805C84.3461 40.3663 84.1102 39.5038 84.1102 38.493C84.1102 37.6035 84.2854 36.8825 84.6358 36.33C84.9862 35.7707 85.4545 35.3327 86.0408 35.016C86.627 34.6993 87.2739 34.4634 87.9814 34.3085C88.6957 34.1467 89.4134 34.0187 90.1344 33.9244C91.0777 33.8031 91.8425 33.7121 92.4288 33.6515C93.0218 33.5841 93.453 33.4729 93.7226 33.3179C93.9988 33.1629 94.137 32.8934 94.137 32.5093V32.4284C94.137 31.4312 93.8641 30.6562 93.3183 30.1037C92.7792 29.5512 91.9605 29.2749 90.8621 29.2749C89.7233 29.2749 88.8305 29.5242 88.1836 30.0228C87.5367 30.5215 87.0819 31.0538 86.8191 31.6198L84.555 30.8112C84.9593 29.8679 85.4983 29.1334 86.1722 28.6078C86.8528 28.0754 87.594 27.7048 88.3959 27.4959C89.2045 27.2803 89.9996 27.1725 90.7812 27.1725C91.2799 27.1725 91.8527 27.2331 92.4995 27.3544C93.1532 27.469 93.7832 27.7082 94.3897 28.0721C95.0028 28.4359 95.5116 28.9851 95.9159 29.7196C96.3202 30.4541 96.5224 31.4379 96.5224 32.671V42.8999H94.137V40.7975H94.0157C93.854 41.1344 93.5844 41.4949 93.2071 41.879C92.8297 42.2631 92.3277 42.5899 91.701 42.8595C91.0744 43.129 90.3096 43.2638 89.4066 43.2638ZM89.7705 41.121C90.7139 41.121 91.509 40.9357 92.1559 40.5651C92.8095 40.1944 93.3014 39.716 93.6316 39.1298C93.9685 38.5435 94.137 37.927 94.137 37.2801V35.0968C94.0359 35.2181 93.8135 35.3293 93.4699 35.4304C93.1329 35.5247 92.7421 35.609 92.2974 35.6831C91.8594 35.7505 91.4315 35.8111 91.0137 35.865C90.6027 35.9122 90.2691 35.9526 90.0131 35.9863C89.3931 36.0672 88.8136 36.1986 88.2746 36.3805C87.7422 36.5557 87.311 36.8219 86.9808 37.179C86.6574 37.5294 86.4956 38.0078 86.4956 38.6143C86.4956 39.4431 86.8022 40.0698 87.4154 40.4943C88.0354 40.9121 88.8204 41.121 89.7705 41.121Z" fill="url(#paint1_linear_430_10871)"/>
<path d="M14.9199 17.1218H20.2199L27.8755 36.2607L35.531 17.1218H40.831L27.8755 46.2718L14.9199 17.1218Z" fill="#6E4E7E"/>
<path d="M106.011 45.9194C106.401 45.5807 106.771 45.2028 107.118 44.7859C107.292 44.5861 107.47 44.382 107.652 44.1735C107.835 43.9651 108.026 43.7566 108.226 43.5481C108.312 43.4613 108.399 43.357 108.486 43.2354C108.573 43.1138 108.66 42.9835 108.747 42.8445C108.816 42.7403 108.903 42.6404 109.007 42.5449C109.12 42.4406 109.207 42.3494 109.268 42.2712C109.32 42.1844 109.385 42.1149 109.463 42.0628C109.507 42.0367 109.546 42.0107 109.581 41.9846C109.624 41.9499 109.667 41.9151 109.711 41.8804C109.798 41.7935 109.876 41.7197 109.945 41.6589C110.015 41.5981 110.093 41.5329 110.18 41.4634C110.258 41.4026 110.332 41.3418 110.401 41.281C110.48 41.2115 110.553 41.1464 110.623 41.0856C110.762 40.9553 110.927 40.8467 111.118 40.7598C111.222 40.7425 111.3 40.7034 111.353 40.6426C111.387 40.5991 111.448 40.534 111.535 40.4471C111.639 40.4645 111.717 40.4558 111.77 40.4211C111.804 40.4037 111.839 40.3863 111.874 40.369C111.917 40.3516 111.961 40.3342 112.004 40.3168C112.247 40.369 112.443 40.4645 112.59 40.6035C112.738 40.7425 112.881 40.8814 113.02 41.0204C113.142 41.0725 113.238 41.1203 113.307 41.1637C113.376 41.2072 113.446 41.255 113.515 41.3071C113.585 41.4461 113.646 41.5763 113.698 41.698C113.75 41.8196 113.776 41.9585 113.776 42.1149C113.776 42.1844 113.767 42.2886 113.75 42.4276C113.741 42.4797 113.733 42.5318 113.724 42.5839C113.715 42.6361 113.707 42.6882 113.698 42.7403C113.628 42.9488 113.602 43.0617 113.62 43.0791C113.637 43.0964 113.646 43.1225 113.646 43.1572C113.663 43.3136 113.615 43.4569 113.502 43.5872C113.39 43.7262 113.359 43.8782 113.411 44.0432C113.429 44.1127 113.407 44.243 113.346 44.4341C113.285 44.6252 113.264 44.7555 113.281 44.825C113.316 44.9205 113.333 45.0552 113.333 45.2289C113.333 45.4026 113.376 45.5199 113.463 45.5807C113.646 45.6502 113.767 45.6849 113.828 45.6849H114.011C114.219 45.5807 114.48 45.4026 114.792 45.1507C115.105 44.8988 115.34 44.686 115.496 44.5123C115.583 44.4428 115.665 44.3733 115.743 44.3038C115.822 44.2343 115.895 44.1692 115.965 44.1084C116.13 43.9607 116.321 43.8348 116.538 43.7305C116.764 43.5742 116.903 43.4656 116.955 43.4048L117.294 43.0269C117.346 42.9748 117.411 42.9227 117.489 42.8706C117.568 42.8185 117.641 42.7577 117.711 42.6882C117.85 42.5492 117.989 42.4537 118.128 42.4015H118.428C118.549 42.4015 118.632 42.4363 118.675 42.5058C118.71 42.6447 118.71 42.7664 118.675 42.8706C118.64 42.9748 118.597 43.0704 118.545 43.1572C118.484 43.2528 118.406 43.3483 118.31 43.4439C118.241 43.5742 118.163 43.6871 118.076 43.7826C118.032 43.8261 117.985 43.8738 117.932 43.926C117.889 43.9694 117.841 44.0215 117.789 44.0823C117.685 44.2039 117.563 44.2951 117.424 44.3559C117.381 44.408 117.337 44.4558 117.294 44.4993C117.259 44.5427 117.22 44.5861 117.177 44.6295L116.929 44.8771C116.834 44.9727 116.755 45.0682 116.695 45.1637C116.634 45.2593 116.556 45.3548 116.46 45.4504C116.365 45.5286 116.269 45.6067 116.173 45.6849C116.087 45.7631 115.995 45.8369 115.9 45.9064C115.717 46.0454 115.548 46.2148 115.392 46.4146C115.314 46.4493 115.244 46.4884 115.183 46.5318C115.148 46.5579 115.088 46.597 115.001 46.6491C114.784 46.7099 114.562 46.8358 114.336 47.0269C114.119 47.218 113.893 47.3961 113.659 47.5611C113.433 47.7175 113.194 47.787 112.942 47.7696C112.751 47.8565 112.586 47.8608 112.447 47.7826C112.308 47.7045 112.169 47.6219 112.03 47.5351C111.839 47.4135 111.657 47.2745 111.483 47.1181C111.309 46.9618 111.205 46.7446 111.17 46.4667C111.135 46.015 111.188 45.5894 111.327 45.1898C111.474 44.7816 111.578 44.382 111.639 43.9911C111.639 43.9477 111.665 43.7913 111.717 43.5221C111.778 43.2441 111.787 43.0617 111.743 42.9748C111.717 42.9401 111.696 42.8793 111.678 42.7924C111.67 42.7056 111.596 42.6187 111.457 42.5318C111.379 42.4884 111.344 42.4797 111.353 42.5058C111.361 42.5405 111.292 42.5579 111.144 42.5579C110.996 42.61 110.875 42.6795 110.779 42.7664C110.727 42.8098 110.671 42.8532 110.61 42.8966C110.558 42.9401 110.501 42.9835 110.441 43.0269C110.284 43.2094 110.089 43.3831 109.854 43.5481C109.646 43.6958 109.459 43.8782 109.294 44.0953C109.155 44.2517 109.025 44.408 108.903 44.5644C108.799 44.7034 108.66 44.8597 108.486 45.0335C108 45.5894 107.522 46.1019 107.053 46.5709C106.992 46.6404 106.931 46.7099 106.871 46.7794C106.818 46.8489 106.766 46.9184 106.714 46.9879C106.662 47.0573 106.606 47.1268 106.545 47.1963C106.493 47.2658 106.436 47.3353 106.375 47.4048C106.167 47.6654 105.941 47.9173 105.698 48.1605C105.594 48.3342 105.446 48.4993 105.255 48.6556C105.064 48.812 104.873 48.9249 104.682 48.9944C104.629 48.9596 104.573 48.9596 104.512 48.9944C104.451 49.0291 104.395 49.0465 104.343 49.0465C104.239 49.0031 104.156 48.9683 104.095 48.9422C104.034 48.9249 103.995 48.9118 103.978 48.9032C103.943 48.8858 103.917 48.8467 103.9 48.7859C103.726 48.6817 103.661 48.5123 103.704 48.2778C103.748 48.0432 103.787 47.8391 103.822 47.6654C103.909 47.2745 104.013 46.8836 104.134 46.4927C104.256 46.1019 104.391 45.7153 104.538 45.3331C104.686 44.9509 104.821 44.5687 104.942 44.1865C105.064 43.8044 105.168 43.4265 105.255 43.053C105.342 42.7577 105.429 42.4841 105.515 42.2322C105.602 41.9803 105.707 41.7153 105.828 41.4374C105.958 41.1594 106.041 40.9118 106.076 40.6947C106.11 40.4775 106.193 40.23 106.323 39.952C106.401 39.813 106.462 39.6828 106.506 39.5611C106.558 39.4135 106.61 39.2832 106.662 39.1703C106.862 38.8141 107.044 38.3842 107.209 37.8804C107.383 37.3679 107.565 36.9119 107.757 36.5123C107.965 35.9564 108.182 35.4178 108.408 34.8967C108.634 34.3755 108.886 33.863 109.164 33.3592C109.329 32.6904 109.598 32.0649 109.971 31.483C110.145 31.2571 110.262 31.0747 110.323 30.9357C110.401 30.762 110.475 30.6317 110.545 30.5449C110.753 30.293 110.988 30.0975 111.248 29.9585C111.5 29.8196 111.726 29.6241 111.926 29.3722C112.074 29.3027 112.208 29.2506 112.33 29.2159C112.399 29.1985 112.464 29.1811 112.525 29.1638C112.586 29.1377 112.647 29.1116 112.708 29.0856C112.76 29.1377 112.786 29.2419 112.786 29.3983C112.821 29.3983 112.829 29.4504 112.812 29.5546C112.795 29.6589 112.795 29.7457 112.812 29.8152C112.812 30.0584 112.79 30.2322 112.747 30.3364L112.629 30.623C112.612 30.762 112.603 30.8532 112.603 30.8967C112.603 30.9575 112.595 31.0313 112.577 31.1181C112.525 31.2832 112.504 31.3744 112.512 31.3918C112.521 31.4091 112.525 31.4395 112.525 31.483C112.525 31.5177 112.517 31.5959 112.499 31.7175C112.482 31.8391 112.473 31.926 112.473 31.9781C112.464 32.1518 112.417 32.3516 112.33 32.5774C112.26 32.7685 112.195 32.9596 112.134 33.1507C112.03 33.2723 111.969 33.3679 111.952 33.4374C111.935 33.5069 111.9 33.5503 111.848 33.5677C111.796 33.7153 111.743 33.863 111.691 34.0107C111.648 34.1496 111.604 34.2886 111.561 34.4276C111.474 34.6969 111.344 34.9575 111.17 35.2094C111.109 35.3918 111.018 35.5785 110.897 35.7696C110.836 35.8565 110.779 35.9477 110.727 36.0432C110.684 36.1301 110.64 36.217 110.597 36.3038L110.48 36.5514C110.428 36.6556 110.388 36.7381 110.362 36.7989C110.241 37.0248 110.115 37.255 109.985 37.4895C109.854 37.724 109.702 37.9368 109.528 38.1279C109.216 38.7881 108.886 39.4526 108.538 40.1214C108.191 40.7902 107.852 41.4374 107.522 42.0628C107.461 42.1583 107.409 42.2495 107.366 42.3364C107.322 42.4146 107.287 42.4884 107.261 42.5579C107.218 42.6534 107.188 42.762 107.17 42.8836C107.153 42.9879 107.105 43.0791 107.027 43.1572C107.001 43.2354 106.975 43.3136 106.949 43.3918C106.923 43.4613 106.901 43.5307 106.884 43.6002C106.849 43.7392 106.784 43.8695 106.688 43.9911C106.627 44.3299 106.519 44.6556 106.362 44.9683C106.215 45.2636 106.097 45.5807 106.011 45.9194ZM123.626 47.7175L123.47 47.1442C123.366 46.927 123.348 46.5883 123.418 46.1279L123.509 45.6719C123.526 45.6111 123.539 45.5329 123.548 45.4374C123.565 45.3418 123.583 45.2246 123.6 45.0856C123.618 44.9553 123.635 44.825 123.652 44.6947C123.678 44.5557 123.709 44.4167 123.743 44.2778C123.778 44.1388 123.804 43.9998 123.822 43.8608C123.848 43.7218 123.869 43.5829 123.887 43.4439C123.757 43.6437 123.631 43.8478 123.509 44.0563C123.387 44.2647 123.27 44.4819 123.157 44.7077C122.94 45.1333 122.671 45.5025 122.349 45.8152C122.28 46.0237 122.193 46.1583 122.089 46.2191C121.985 46.2712 121.88 46.3234 121.776 46.3755C121.672 46.4276 121.585 46.5535 121.515 46.7533C121.429 46.8402 121.346 46.9314 121.268 47.0269C121.19 47.1225 121.133 47.2398 121.099 47.3787C121.012 47.4135 120.925 47.483 120.838 47.5872C120.673 47.7522 120.569 47.8391 120.525 47.8478C120.482 47.8565 120.438 47.8825 120.395 47.926C120.221 48.0649 120.069 48.1692 119.939 48.2387C119.809 48.3082 119.657 48.3516 119.483 48.369C119.292 48.4037 119.044 48.4298 118.74 48.4471C118.593 48.4558 118.458 48.4645 118.336 48.4732C118.215 48.4819 118.11 48.4906 118.024 48.4993C117.911 48.4124 117.824 48.3603 117.763 48.3429C117.737 48.3342 117.698 48.3212 117.646 48.3038C117.602 48.2864 117.546 48.2647 117.476 48.2387C117.224 48.1344 117.103 48.0867 117.112 48.0953C117.103 48.0867 117.09 48.078 117.072 48.0693C117.046 48.0606 117.016 48.0476 116.981 48.0302C116.842 47.926 116.747 47.8434 116.695 47.7826C116.66 47.7392 116.599 47.6741 116.512 47.5872C116.226 47.1442 116.061 46.5709 116.017 45.8673C116 45.6241 116.043 45.3809 116.147 45.1377C116.252 44.8945 116.347 44.6773 116.434 44.4862C116.538 44.2691 116.651 44.0693 116.773 43.8869C116.842 43.7826 116.907 43.6827 116.968 43.5872C117.02 43.4917 117.068 43.4004 117.112 43.3136C117.216 43.1051 117.233 42.9705 117.164 42.9097C117.103 42.8402 117.12 42.7056 117.216 42.5058C117.259 42.3668 117.311 42.2452 117.372 42.1409L117.607 41.724C117.763 41.4461 117.928 41.1985 118.102 40.9813C118.258 40.7902 118.388 40.534 118.493 40.2126C118.58 39.9694 118.697 39.7826 118.844 39.6523C118.992 39.5221 119.17 39.4048 119.379 39.3006C119.466 39.3353 119.591 39.3223 119.757 39.2615C119.922 39.2007 120.047 39.1355 120.134 39.066C120.256 39.066 120.352 39.0313 120.421 38.9618C120.612 38.9271 120.712 38.9271 120.721 38.9618C120.729 38.9965 120.751 39.0139 120.786 39.0139C120.821 39.0226 120.868 39.0226 120.929 39.0139C120.99 39.0052 121.038 39.0052 121.072 39.0139C121.133 39.1963 121.177 39.3092 121.203 39.3527C121.238 39.3961 121.255 39.4395 121.255 39.483C121.255 39.5351 121.251 39.6046 121.242 39.6914C121.233 39.7783 121.22 39.8391 121.203 39.8738C121.107 40.0041 121.051 40.0867 121.033 40.1214L120.994 40.2126C120.942 40.2821 120.881 40.3646 120.812 40.4602C120.751 40.547 120.682 40.6513 120.603 40.7729L120.186 41.3852C120.091 41.5329 120.004 41.6285 119.926 41.6719C119.83 41.724 119.752 41.8196 119.691 41.9585C119.657 42.0193 119.631 42.0845 119.613 42.154C119.604 42.2148 119.578 42.2799 119.535 42.3494C119.335 42.7664 119.109 43.1876 118.857 43.6133C118.727 43.8304 118.601 44.0476 118.48 44.2647C118.367 44.4732 118.258 44.6773 118.154 44.8771C118.145 44.9466 118.132 45.0161 118.115 45.0856C118.097 45.1464 118.08 45.2115 118.063 45.281C118.019 45.4287 117.998 45.5546 117.998 45.6589C117.998 45.6849 117.989 45.8196 117.971 46.0628C117.954 46.306 117.963 46.4493 117.998 46.4927C118.102 46.6404 118.163 46.7055 118.18 46.6882C118.197 46.6708 118.215 46.6751 118.232 46.7012C118.302 46.8749 118.349 46.9748 118.375 47.0009C118.401 47.0269 118.458 47.0573 118.545 47.0921C118.614 47.1095 118.714 47.0964 118.844 47.053C118.975 47.0096 119.075 46.9705 119.144 46.9357C119.353 46.8315 119.509 46.7229 119.613 46.61C119.717 46.4971 119.822 46.3798 119.926 46.2582C120.186 45.9455 120.464 45.5807 120.76 45.1637C121.055 44.7468 121.333 44.382 121.594 44.0693C121.689 43.8608 121.815 43.6523 121.971 43.4439C122.137 43.218 122.262 43.0183 122.349 42.8445L122.714 42.1409C122.766 42.0454 122.823 41.9412 122.884 41.8282C122.944 41.7153 123.009 41.5937 123.079 41.4634C123.183 41.3158 123.292 41.1811 123.405 41.0595C123.518 40.9379 123.6 40.7598 123.652 40.5253C123.696 40.4037 123.761 40.2864 123.848 40.1735C123.891 40.1127 123.93 40.0606 123.965 40.0172C124.008 39.9651 124.043 39.9173 124.069 39.8738C124.199 39.7522 124.282 39.6567 124.317 39.5872C124.352 39.5177 124.408 39.4569 124.486 39.4048C124.677 39.3527 124.825 39.3136 124.929 39.2875C125.033 39.2615 125.164 39.2658 125.32 39.3006C125.459 39.2137 125.607 39.1703 125.763 39.1703C125.841 39.1703 125.915 39.1746 125.985 39.1833C126.063 39.1833 126.137 39.1876 126.206 39.1963C126.206 39.2832 126.228 39.3396 126.271 39.3657C126.315 39.3918 126.336 39.4395 126.336 39.509C126.406 39.6654 126.406 39.8565 126.336 40.0823C126.258 40.3342 126.215 40.5601 126.206 40.7598C126.163 40.9423 126.097 41.1029 126.011 41.2419C125.915 41.3983 125.841 41.5677 125.789 41.7501C125.754 41.8804 125.724 41.9846 125.698 42.0628C125.68 42.1409 125.667 42.1931 125.659 42.2191L125.581 42.5058C125.546 42.6621 125.511 42.8141 125.476 42.9618C125.442 43.1008 125.407 43.2398 125.372 43.3787C125.303 43.6567 125.251 43.9651 125.216 44.3038C125.216 44.3907 125.203 44.4819 125.177 44.5774C125.151 44.6643 125.138 44.7468 125.138 44.825C125.138 44.9118 125.142 45.0161 125.151 45.1377C125.159 45.2593 125.207 45.3375 125.294 45.3722C125.39 45.407 125.472 45.3983 125.542 45.3462C125.628 45.2767 125.72 45.2159 125.815 45.1637C125.876 45.1203 125.963 45.0421 126.076 44.9292C126.189 44.8163 126.276 44.7381 126.336 44.6947C126.423 44.6078 126.519 44.5383 126.623 44.4862C126.727 44.4341 126.823 44.3646 126.91 44.2778C127.049 44.1561 127.183 44.0345 127.314 43.9129C127.452 43.7826 127.583 43.6523 127.704 43.5221C127.965 43.2528 128.239 43.0356 128.525 42.8706C128.803 42.5753 129.085 42.3016 129.372 42.0497C129.659 41.7978 129.985 41.585 130.349 41.4113C130.488 41.6371 130.523 41.8239 130.454 41.9716C130.384 42.1192 130.297 42.2626 130.193 42.4015C130.15 42.445 130.089 42.4884 130.011 42.5318C129.915 42.5839 129.846 42.6274 129.802 42.6621L129.672 42.7924C129.62 42.8445 129.576 42.8706 129.542 42.8706C129.542 42.9401 129.52 42.9965 129.476 43.04L129.359 43.1572C129.246 43.331 129.125 43.496 128.994 43.6523C128.873 43.8 128.742 43.9433 128.603 44.0823C128.464 44.2213 128.325 44.3603 128.186 44.4993C128.056 44.6295 127.926 44.7642 127.796 44.9032C127.674 44.9466 127.6 45.0031 127.574 45.0725C127.548 45.1594 127.492 45.2332 127.405 45.294C127.37 45.3375 127.335 45.3766 127.3 45.4113C127.266 45.446 127.231 45.4808 127.196 45.5155C127.161 45.5503 127.127 45.585 127.092 45.6198C127.057 45.6545 127.023 45.6936 126.988 45.737C126.884 45.85 126.792 45.9672 126.714 46.0888C126.636 46.2017 126.527 46.3103 126.388 46.4146C126.302 46.5014 126.236 46.5926 126.193 46.6882C126.158 46.775 126.093 46.8662 125.998 46.9618C125.859 47.1008 125.759 47.1659 125.698 47.1572C125.646 47.1485 125.598 47.2311 125.555 47.4048C125.416 47.509 125.337 47.5829 125.32 47.6263C125.311 47.661 125.285 47.6741 125.242 47.6654C125.198 47.6827 125.138 47.6958 125.059 47.7045C124.973 47.7131 124.929 47.7349 124.929 47.7696C124.816 47.8217 124.725 47.8738 124.656 47.926C124.586 47.9868 124.504 48.0215 124.408 48.0302C124.182 48.0649 124.021 48.0519 123.926 47.9911C123.83 47.9303 123.73 47.8391 123.626 47.7175ZM135.822 42.5579C135.891 43.2007 135.891 43.7696 135.822 44.2647C135.752 44.7598 135.613 45.2593 135.405 45.7631C135.161 46.1453 134.875 46.4927 134.545 46.8054C134.493 46.8576 134.441 46.914 134.388 46.9748C134.345 47.0269 134.302 47.0834 134.258 47.1442C134.171 47.2571 134.067 47.3614 133.945 47.4569C133.859 47.5264 133.728 47.6002 133.555 47.6784C133.424 47.7392 133.311 47.8304 133.216 47.952C133.146 47.9694 133.081 47.9911 133.02 48.0172C132.96 48.0432 132.894 48.0736 132.825 48.1084C132.651 48.1518 132.525 48.1909 132.447 48.2256L132.199 48.3429C132.121 48.3776 132.043 48.3863 131.965 48.369C131.904 48.3516 131.826 48.3516 131.73 48.369C131.652 48.3776 131.578 48.4124 131.509 48.4732C131.448 48.5253 131.374 48.5687 131.287 48.6035C131.114 48.6556 130.957 48.6469 130.818 48.5774C130.679 48.5079 130.558 48.4124 130.454 48.2908C130.123 48.1692 129.902 48.0215 129.789 47.8478C129.676 47.6741 129.559 47.4917 129.437 47.3006C129.264 47.1268 129.155 46.9488 129.112 46.7664C129.068 46.5839 129.029 46.3798 128.994 46.154C128.951 45.8847 128.912 45.6154 128.877 45.3462C128.842 45.0769 128.812 44.8076 128.786 44.5383C128.768 44.382 128.768 44.217 128.786 44.0432C128.803 43.8695 128.803 43.6958 128.786 43.5221C128.768 43.2788 128.755 43.0096 128.747 42.7142C128.738 42.4189 128.76 42.167 128.812 41.9585C128.855 41.7761 128.899 41.6285 128.942 41.5155C128.986 41.3939 129.029 41.255 129.072 41.0986C129.142 40.8814 129.194 40.7034 129.229 40.5644C129.264 40.408 129.316 40.2474 129.385 40.0823C129.403 40.0389 129.42 39.9998 129.437 39.9651C129.455 39.9216 129.472 39.8825 129.489 39.8478C129.507 39.813 129.524 39.7783 129.542 39.7436C129.559 39.7088 129.576 39.6741 129.594 39.6393C129.62 39.5785 129.65 39.496 129.685 39.3918C129.72 39.2875 129.75 39.205 129.776 39.1442C129.811 39.0052 129.867 38.8662 129.945 38.7273C130.015 38.597 130.071 38.4493 130.115 38.2843C130.15 38.1627 130.18 38.0584 130.206 37.9716C130.232 37.8847 130.297 37.7978 130.401 37.711L130.597 37.1898C130.632 37.1029 130.666 37.0161 130.701 36.9292C130.736 36.8424 130.775 36.7555 130.818 36.6686C130.862 36.5818 130.901 36.4949 130.936 36.4081C130.97 36.3212 131.005 36.2343 131.04 36.1475C131.075 36.0606 131.109 35.9737 131.144 35.8869C131.179 35.8 131.218 35.7132 131.261 35.6263C131.418 35.4091 131.509 35.2745 131.535 35.2224L131.626 35.0009C131.678 34.9314 131.722 34.8706 131.756 34.8185C131.791 34.7664 131.817 34.7229 131.835 34.6882L132.46 33.6328C132.564 33.4591 132.673 33.2854 132.786 33.1116C132.899 32.9379 133.016 32.7685 133.138 32.6035C133.294 32.3863 133.45 32.1735 133.607 31.9651C133.763 31.7479 133.915 31.5307 134.063 31.3136C134.341 30.914 134.692 30.5014 135.118 30.0758C135.179 29.9716 135.266 29.8586 135.379 29.737C135.483 29.6154 135.587 29.4851 135.691 29.3462C135.752 29.2854 135.809 29.2246 135.861 29.1638C135.922 29.1029 135.978 29.0421 136.03 28.9813C136.126 28.8771 136.239 28.7729 136.369 28.6686C136.482 28.5731 136.577 28.4906 136.656 28.4211C136.742 28.3516 136.808 28.2951 136.851 28.2517C136.947 28.1562 137.09 28.104 137.281 28.0953C137.628 28.078 137.915 28.1692 138.141 28.369C138.367 28.5687 138.532 28.8163 138.636 29.1116C138.601 29.4157 138.61 29.711 138.662 29.9976C138.714 30.2843 138.697 30.5535 138.61 30.8054C138.454 31.1008 138.302 31.4048 138.154 31.7175C138.006 32.0302 137.863 32.3429 137.724 32.6556C137.585 32.977 137.429 33.2723 137.255 33.5416C137.177 33.6632 137.099 33.7892 137.02 33.9195C136.951 34.0497 136.881 34.1844 136.812 34.3234C136.708 34.5145 136.59 34.6969 136.46 34.8706C136.347 35.0183 136.239 35.218 136.134 35.4699C136.047 35.5568 135.978 35.6567 135.926 35.7696C135.882 35.8652 135.796 35.9651 135.665 36.0693C135.5 36.4341 135.266 36.7555 134.962 37.0335L134.362 38.2061C134.267 38.3972 134.163 38.5839 134.05 38.7664C133.945 38.9488 133.833 39.1268 133.711 39.3006C133.624 39.3179 133.555 39.3614 133.502 39.4309C133.45 39.5003 133.398 39.5785 133.346 39.6654C133.207 39.8391 133.068 40.0085 132.929 40.1735C132.79 40.3386 132.634 40.4993 132.46 40.6556C132.417 40.7946 132.317 40.9336 132.16 41.0725C131.995 41.2289 131.887 41.3505 131.835 41.4374C131.809 41.4721 131.778 41.5242 131.743 41.5937C131.709 41.6632 131.678 41.7153 131.652 41.7501C131.6 41.8369 131.552 41.8977 131.509 41.9325C131.466 41.9672 131.418 42.0193 131.366 42.0888C131.314 42.2278 131.27 42.3103 131.235 42.3364C131.209 42.3538 131.175 42.3842 131.131 42.4276C131.027 42.5839 130.966 42.6621 130.949 42.6621C130.931 42.6621 130.914 42.6708 130.897 42.6882C130.792 42.888 130.723 42.9922 130.688 43.0009C130.653 43.0096 130.627 43.0356 130.61 43.0791C130.619 43.3223 130.619 43.4873 130.61 43.5742C130.601 43.6176 130.593 43.661 130.584 43.7045C130.575 43.7479 130.566 43.7913 130.558 43.8348C130.601 43.9911 130.614 44.1692 130.597 44.369C130.588 44.4645 130.584 44.5644 130.584 44.6686C130.593 44.7642 130.601 44.8597 130.61 44.9553C130.627 45.1464 130.649 45.3244 130.675 45.4895C130.701 45.6545 130.74 45.8065 130.792 45.9455C130.844 46.1019 130.94 46.2365 131.079 46.3494C131.218 46.4623 131.383 46.5101 131.574 46.4927C131.644 46.4754 131.739 46.4406 131.861 46.3885C131.982 46.3364 132.078 46.293 132.147 46.2582C132.191 46.2235 132.234 46.1844 132.278 46.1409C132.321 46.0975 132.365 46.0497 132.408 45.9976C132.451 45.9455 132.495 45.8977 132.538 45.8543C132.582 45.8022 132.625 45.7544 132.669 45.711C132.86 45.4678 133.068 45.1724 133.294 44.825L133.893 43.8869C133.937 43.7479 133.976 43.6306 134.011 43.5351C134.045 43.4395 134.076 43.3657 134.102 43.3136C134.145 43.2267 134.189 43.1051 134.232 42.9488C134.275 42.749 134.289 42.5666 134.271 42.4015C134.262 42.2452 134.293 42.0888 134.362 41.9325C134.397 41.8282 134.48 41.6936 134.61 41.5286C134.74 41.3635 134.849 41.2376 134.936 41.1507C135.092 41.0117 135.188 40.9466 135.222 40.9553C135.248 40.964 135.283 40.9596 135.327 40.9423C135.613 40.9075 135.804 40.9162 135.9 40.9683C135.995 41.0204 136.134 41.0465 136.317 41.0465C136.369 41.0378 136.421 41.0291 136.473 41.0204C136.525 41.0031 136.582 40.99 136.642 40.9813C136.747 40.9553 136.864 40.9509 136.994 40.9683C137.133 40.9857 137.264 40.9987 137.385 41.0074C137.507 41.0161 137.637 41.0031 137.776 40.9683C138.002 40.9162 138.28 40.8901 138.61 40.8901C138.662 40.8901 138.718 40.8901 138.779 40.8901C138.84 40.8901 138.901 40.8945 138.962 40.9032C139.092 40.9118 139.227 40.8988 139.366 40.8641C139.522 40.8467 139.678 40.8076 139.835 40.7468C139.991 40.686 140.139 40.673 140.278 40.7077C140.399 40.7251 140.49 40.7946 140.551 40.9162C140.612 41.0378 140.634 41.1681 140.616 41.3071C140.599 41.3939 140.556 41.5025 140.486 41.6328C140.417 41.7631 140.347 41.8369 140.278 41.8543C140.139 41.8196 140.061 41.8109 140.043 41.8282C140.026 41.8456 140 41.8543 139.965 41.8543C139.861 41.8456 139.752 41.8152 139.639 41.7631L139.34 41.6458C139.096 41.6111 138.857 41.6198 138.623 41.6719C138.388 41.724 138.158 41.7848 137.932 41.8543L137.607 41.9716C137.546 41.9889 137.485 42.0107 137.424 42.0367C137.372 42.0541 137.316 42.0715 137.255 42.0888C137.185 42.1062 137.129 42.1149 137.085 42.1149C137.016 42.1149 136.96 42.1323 136.916 42.167C136.803 42.2018 136.695 42.2278 136.59 42.2452C136.495 42.2626 136.395 42.2886 136.291 42.3234C136.152 42.3581 136.074 42.3972 136.056 42.4406C136.047 42.4754 135.969 42.5145 135.822 42.5579ZM134.441 33.724C134.041 34.332 133.654 34.9531 133.281 35.5872C132.907 36.2213 132.538 36.8858 132.173 37.5807C132.121 37.6849 132.074 37.7935 132.03 37.9064C131.987 38.0193 131.939 38.1453 131.887 38.2843C131.8 38.3885 131.726 38.5318 131.665 38.7142C131.604 38.8966 131.548 39.066 131.496 39.2224C131.452 39.3353 131.409 39.4482 131.366 39.5611C131.322 39.6654 131.279 39.774 131.235 39.8869C131.148 40.104 131.122 40.3082 131.157 40.4993C131.357 40.3603 131.531 40.1648 131.678 39.9129L132.095 39.1703C132.199 39.066 132.278 38.9661 132.33 38.8706C132.391 38.7664 132.469 38.6578 132.564 38.5449C132.66 38.4406 132.738 38.3364 132.799 38.2322C132.86 38.1366 132.938 38.0411 133.033 37.9455C133.277 37.5981 133.489 37.2246 133.672 36.825C133.767 36.6252 133.863 36.4254 133.958 36.2256C134.063 36.0259 134.171 35.8261 134.284 35.6263C134.38 35.4439 134.488 35.2528 134.61 35.053C134.705 34.888 134.805 34.6969 134.91 34.4797L135.183 33.8282C135.227 33.724 135.27 33.6198 135.313 33.5155C135.357 33.4026 135.396 33.2897 135.431 33.1768C135.483 32.9075 135.548 32.7294 135.626 32.6426C135.713 32.547 135.761 32.4298 135.77 32.2908C135.518 32.4906 135.283 32.7208 135.066 32.9813L134.441 33.724Z" fill="#5DDFD8"/>
<line x1="45.5988" y1="15.8999" x2="45.5988" y2="75.4942" stroke="#6E4E7E" stroke-width="2.6684"/>
<circle cx="45.6112" cy="11.0079" r="1.77894" fill="#D9D9D9" stroke="#5DDFD8" stroke-width="2.6684"/>
<line x1="45.2563" y1="51.4753" x2="63.0097" y2="71.1969" stroke="#6E4E7E" stroke-width="2.6684"/>
<line x1="63.4002" y1="71.9363" x2="63.4002" y2="51.4785" stroke="#6E4E7E" stroke-width="2.6684"/>
<line x1="44.2646" y1="75.939" x2="166.122" y2="75.939" stroke="url(#paint2_linear_430_10871)" stroke-width="2.6684"/>
<path d="M151.893 76.8286L151.893 41.6946" stroke="#60C8CB" stroke-width="2.6684"/>
<path d="M166.123 42.1394H142.107" stroke="#60C8CB" stroke-width="2.6684"/>
<rect x="152.784" y="40.8052" width="13.342" height="36.4682" fill="white"/>
<g clip-path="url(#clip1_430_10871)">
<rect width="180.562" height="89.8362" transform="translate(0.681641 0.778809)" fill="white"/>
<rect x="0.678711" y="0.778809" width="180.562" height="89.8362" fill="white"/>
<path d="M76.3257 55.8375V57.8591H68.2801V55.8375H76.3257ZM70.6251 52.1179H73.0104V66.9155C73.0104 67.5893 73.1081 68.0947 73.3036 68.4316C73.5057 68.7618 73.7618 68.9841 74.0717 69.0987C74.3884 69.2065 74.722 69.2604 75.0724 69.2604C75.3352 69.2604 75.5508 69.2469 75.7193 69.22C75.8877 69.1863 76.0225 69.1593 76.1236 69.1391L76.6087 71.2819C76.447 71.3426 76.2213 71.4032 75.9315 71.4639C75.6418 71.5313 75.2745 71.5649 74.8298 71.5649C74.156 71.5649 73.4956 71.4201 72.8487 71.1303C72.2086 70.8406 71.6762 70.3992 71.2517 69.8062C70.8339 69.2132 70.6251 68.4653 70.6251 67.5623V52.1179ZM86.2564 71.6862C84.7605 71.6862 83.4701 71.3561 82.3852 70.6957C81.3071 70.0286 80.4749 69.0987 79.8887 67.906C79.3092 66.7066 79.0194 65.3117 79.0194 63.7215C79.0194 62.1312 79.3092 60.7296 79.8887 59.5167C80.4749 58.2971 81.2902 57.3469 82.3347 56.6664C83.3859 55.979 84.6123 55.6354 86.0139 55.6354C86.8225 55.6354 87.621 55.7702 88.4093 56.0397C89.1977 56.3092 89.9154 56.7472 90.5623 57.3537C91.2092 57.9534 91.7246 58.7485 92.1087 59.7391C92.4928 60.7296 92.6849 61.9493 92.6849 63.398V64.4088H80.7175V62.3468H90.259C90.259 61.4708 90.0838 60.6892 89.7334 60.0019C89.3898 59.3146 88.8979 58.7721 88.2577 58.3745C87.6243 57.977 86.8764 57.7782 86.0139 57.7782C85.0637 57.7782 84.2417 58.014 83.5476 58.4857C82.8603 58.9507 82.3313 59.5571 81.9607 60.3051C81.5901 61.0531 81.4048 61.8549 81.4048 62.7107V64.0853C81.4048 65.2578 81.6069 66.2517 82.0112 67.0671C82.4223 67.8757 82.9917 68.4922 83.7194 68.9168C84.4472 69.3345 85.2928 69.5434 86.2564 69.5434C86.8831 69.5434 87.4491 69.4558 87.9545 69.2806C88.4666 69.0987 88.908 68.8292 89.2786 68.472C89.6492 68.1082 89.9356 67.6567 90.1377 67.1176L92.4423 67.7645C92.1997 68.5461 91.792 69.2335 91.2193 69.8264C90.6465 70.4127 89.939 70.8709 89.0967 71.2011C88.2544 71.5245 87.3076 71.6862 86.2564 71.6862ZM96.3135 71.3628V55.8375H98.618V58.1825H98.7797C99.0627 57.4143 99.5749 56.791 100.316 56.3126C101.057 55.8342 101.893 55.595 102.823 55.595C102.998 55.595 103.217 55.5983 103.48 55.6051C103.743 55.6118 103.941 55.6219 104.076 55.6354V58.0612C103.995 58.041 103.81 58.0107 103.52 57.9702C103.237 57.9231 102.937 57.8995 102.621 57.8995C101.866 57.8995 101.192 58.0578 100.599 58.3745C100.013 58.6845 99.5479 59.1158 99.2043 59.6683C98.8673 60.2141 98.6989 60.8374 98.6989 61.5382V71.3628H96.3135ZM109.289 62.0234V71.3628H106.904V55.8375H109.208V58.2634H109.41C109.774 57.475 110.327 56.8416 111.068 56.3631C111.809 55.878 112.766 55.6354 113.939 55.6354C114.99 55.6354 115.91 55.851 116.698 56.2823C117.486 56.7068 118.1 57.3537 118.538 58.2229C118.976 59.0854 119.195 60.1771 119.195 61.4978V71.3628H116.809V61.6595C116.809 60.4399 116.492 59.4897 115.859 58.8092C115.226 58.1219 114.356 57.7782 113.251 57.7782C112.49 57.7782 111.809 57.9433 111.21 58.2735C110.617 58.6037 110.148 59.0854 109.805 59.7189C109.461 60.3523 109.289 61.1204 109.289 62.0234ZM128.122 71.7267C127.138 71.7267 126.245 71.5414 125.444 71.1707C124.642 70.7934 124.005 70.251 123.533 69.5434C123.062 68.8292 122.826 67.9666 122.826 66.9559C122.826 66.0664 123.001 65.3454 123.351 64.7929C123.702 64.2336 124.17 63.7956 124.756 63.4789C125.342 63.1622 125.989 62.9263 126.697 62.7713C127.411 62.6096 128.129 62.4816 128.85 62.3873C129.793 62.266 130.558 62.175 131.144 62.1144C131.737 62.047 132.168 61.9358 132.438 61.7808C132.714 61.6258 132.852 61.3563 132.852 60.9722V60.8913C132.852 59.8941 132.579 59.1191 132.034 58.5666C131.495 58.014 130.676 57.7378 129.578 57.7378C128.439 57.7378 127.546 57.9871 126.899 58.4857C126.252 58.9844 125.797 59.5167 125.535 60.0827L123.27 59.2741C123.675 58.3307 124.214 57.5963 124.888 57.0707C125.568 56.5383 126.309 56.1677 127.111 55.9588C127.92 55.7432 128.715 55.6354 129.497 55.6354C129.995 55.6354 130.568 55.696 131.215 55.8173C131.869 55.9319 132.499 56.1711 133.105 56.535C133.718 56.8988 134.227 57.448 134.631 58.1825C135.036 58.917 135.238 59.9008 135.238 61.1339V71.3628H132.852V69.2604H132.731C132.569 69.5973 132.3 69.9578 131.923 70.3419C131.545 70.726 131.043 71.0528 130.416 71.3224C129.79 71.5919 129.025 71.7267 128.122 71.7267ZM128.486 69.5839C129.429 69.5839 130.224 69.3986 130.871 69.0279C131.525 68.6573 132.017 68.1789 132.347 67.5927C132.684 67.0064 132.852 66.3899 132.852 65.743V63.5597C132.751 63.681 132.529 63.7922 132.185 63.8933C131.848 63.9876 131.458 64.0719 131.013 64.146C130.575 64.2134 130.147 64.274 129.729 64.3279C129.318 64.3751 128.985 64.4155 128.729 64.4492C128.109 64.5301 127.529 64.6615 126.99 64.8434C126.458 65.0186 126.026 65.2848 125.696 65.6419C125.373 65.9923 125.211 66.4707 125.211 67.0772C125.211 67.906 125.518 68.5327 126.131 68.9572C126.751 69.375 127.536 69.5839 128.486 69.5839Z" fill="url(#paint3_linear_430_10871)"/>
<path d="M57.6482 43.2233C56.3544 43.2233 55.2122 42.8965 54.2217 42.2429C53.2312 41.5825 52.4562 40.6526 51.897 39.4532C51.3377 38.247 51.058 36.8219 51.058 35.1777C51.058 33.547 51.3377 32.132 51.897 30.9325C52.4562 29.7331 53.2345 28.8066 54.2318 28.1529C55.2291 27.4993 56.3814 27.1725 57.6886 27.1725C58.6994 27.1725 59.4979 27.341 60.0841 27.6779C60.6771 28.0081 61.1286 28.3854 61.4385 28.8099C61.7552 29.2277 62.0012 29.5714 62.1764 29.8409H62.3785V22.1996H64.7639V42.8999H62.4594V40.5145H62.1764C62.0012 40.7975 61.7519 41.1547 61.4284 41.5859C61.105 42.0104 60.6434 42.3912 60.0437 42.7281C59.444 43.0583 58.6455 43.2233 57.6482 43.2233ZM57.9716 41.0805C58.9285 41.0805 59.7371 40.8312 60.3974 40.3326C61.0578 39.8272 61.5598 39.1298 61.9035 38.2403C62.2471 37.3441 62.419 36.3098 62.419 35.1373C62.419 33.9783 62.2505 32.9641 61.9136 32.0949C61.5767 31.2189 61.078 30.5383 60.4177 30.0532C59.7573 29.5613 58.9419 29.3153 57.9716 29.3153C56.9609 29.3153 56.1186 29.5747 55.4447 30.0936C54.7776 30.6057 54.2756 31.3031 53.9387 32.1859C53.6085 33.0619 53.4434 34.0457 53.4434 35.1373C53.4434 36.2424 53.6119 37.2464 53.9488 38.1493C54.2925 39.0455 54.7978 39.7598 55.4649 40.2921C56.1388 40.8177 56.9743 41.0805 57.9716 41.0805ZM71.0003 48.7219C70.596 48.7219 70.2355 48.6882 69.9188 48.6208C69.6021 48.5602 69.3831 48.4995 69.2618 48.4389L69.8682 46.3365C70.4477 46.4847 70.9599 46.5386 71.4046 46.4982C71.8493 46.4578 72.2435 46.259 72.5872 45.9019C72.9376 45.5515 73.2577 44.9821 73.5474 44.1937L73.9921 42.9808L68.251 27.3747H70.8386L75.1242 39.7463H75.2859L79.5715 27.3747H82.1591L75.5689 45.164C75.2724 45.9659 74.9052 46.6296 74.4672 47.1552C74.0292 47.6875 73.5205 48.0817 72.941 48.3378C72.3682 48.5938 71.7213 48.7219 71.0003 48.7219ZM89.4037 43.2638C88.4199 43.2638 87.527 43.0785 86.7252 42.7079C85.9233 42.3305 85.2865 41.7881 84.8148 41.0805C84.3432 40.3663 84.1073 39.5038 84.1073 38.493C84.1073 37.6035 84.2825 36.8825 84.6329 36.33C84.9833 35.7707 85.4516 35.3327 86.0379 35.016C86.6241 34.6993 87.271 34.4634 87.9785 34.3085C88.6928 34.1467 89.4104 34.0187 90.1314 33.9244C91.0748 33.8031 91.8396 33.7121 92.4259 33.6515C93.0188 33.5841 93.4501 33.4729 93.7196 33.3179C93.9959 33.1629 94.134 32.8934 94.134 32.5093V32.4284C94.134 31.4312 93.8611 30.6562 93.3153 30.1037C92.7762 29.5512 91.9575 29.2749 90.8592 29.2749C89.7204 29.2749 88.8276 29.5242 88.1807 30.0228C87.5338 30.5215 87.0789 31.0538 86.8161 31.6198L84.552 30.8112C84.9563 29.8679 85.4954 29.1334 86.1693 28.6078C86.8498 28.0754 87.5911 27.7048 88.3929 27.4959C89.2015 27.2803 89.9967 27.1725 90.7783 27.1725C91.277 27.1725 91.8497 27.2331 92.4966 27.3544C93.1502 27.469 93.7803 27.7082 94.3867 28.0721C94.9999 28.4359 95.5087 28.9851 95.913 29.7196C96.3173 30.4541 96.5194 31.4379 96.5194 32.671V42.8999H94.134V40.7975H94.0127C93.851 41.1344 93.5815 41.4949 93.2041 41.879C92.8268 42.2631 92.3248 42.5899 91.6981 42.8595C91.0714 43.129 90.3066 43.2638 89.4037 43.2638ZM89.7676 41.121C90.7109 41.121 91.5061 40.9357 92.1529 40.5651C92.8066 40.1944 93.2985 39.716 93.6287 39.1298C93.9656 38.5435 94.134 37.927 94.134 37.2801V35.0968C94.033 35.2181 93.8106 35.3293 93.4669 35.4304C93.13 35.5247 92.7392 35.609 92.2945 35.6831C91.8565 35.7505 91.4286 35.8111 91.0108 35.865C90.5997 35.9122 90.2662 35.9526 90.0101 35.9863C89.3902 36.0672 88.8107 36.1986 88.2716 36.3805C87.7393 36.5557 87.308 36.8219 86.9779 37.179C86.6544 37.5294 86.4927 38.0078 86.4927 38.6143C86.4927 39.4431 86.7993 40.0698 87.4125 40.4943C88.0324 40.9121 88.8174 41.121 89.7676 41.121Z" fill="url(#paint4_linear_430_10871)"/>
<path d="M14.917 17.1218H20.217L27.8725 36.2607L35.5281 17.1218H40.8281L27.8725 46.2718L14.917 17.1218Z" fill="#2D3964"/>
<path d="M106.008 45.9194C106.399 45.5807 106.768 45.2028 107.115 44.7859C107.289 44.5861 107.467 44.382 107.649 44.1735C107.832 43.9651 108.023 43.7566 108.223 43.5481C108.309 43.4613 108.396 43.357 108.483 43.2354C108.57 43.1138 108.657 42.9835 108.744 42.8445C108.813 42.7403 108.9 42.6404 109.004 42.5449C109.117 42.4406 109.204 42.3494 109.265 42.2712C109.317 42.1844 109.382 42.1149 109.46 42.0628C109.504 42.0367 109.543 42.0107 109.578 41.9846C109.621 41.9499 109.665 41.9151 109.708 41.8804C109.795 41.7935 109.873 41.7197 109.943 41.6589C110.012 41.5981 110.09 41.5329 110.177 41.4634C110.255 41.4026 110.329 41.3418 110.399 41.281C110.477 41.2115 110.551 41.1464 110.62 41.0856C110.759 40.9553 110.924 40.8467 111.115 40.7598C111.219 40.7425 111.298 40.7034 111.35 40.6426C111.384 40.5991 111.445 40.534 111.532 40.4471C111.636 40.4645 111.714 40.4558 111.767 40.4211C111.801 40.4037 111.836 40.3863 111.871 40.369C111.914 40.3516 111.958 40.3342 112.001 40.3168C112.244 40.369 112.44 40.4645 112.587 40.6035C112.735 40.7425 112.878 40.8814 113.017 41.0204C113.139 41.0725 113.235 41.1203 113.304 41.1637C113.374 41.2072 113.443 41.255 113.513 41.3071C113.582 41.4461 113.643 41.5763 113.695 41.698C113.747 41.8196 113.773 41.9585 113.773 42.1149C113.773 42.1844 113.764 42.2886 113.747 42.4276C113.738 42.4797 113.73 42.5318 113.721 42.5839C113.712 42.6361 113.704 42.6882 113.695 42.7403C113.625 42.9488 113.599 43.0617 113.617 43.0791C113.634 43.0964 113.643 43.1225 113.643 43.1572C113.66 43.3136 113.612 43.4569 113.5 43.5872C113.387 43.7262 113.356 43.8782 113.408 44.0432C113.426 44.1127 113.404 44.243 113.343 44.4341C113.282 44.6252 113.261 44.7555 113.278 44.825C113.313 44.9205 113.33 45.0552 113.33 45.2289C113.33 45.4026 113.374 45.5199 113.46 45.5807C113.643 45.6502 113.764 45.6849 113.825 45.6849H114.008C114.216 45.5807 114.477 45.4026 114.789 45.1507C115.102 44.8988 115.337 44.686 115.493 44.5123C115.58 44.4428 115.662 44.3733 115.741 44.3038C115.819 44.2343 115.893 44.1692 115.962 44.1084C116.127 43.9607 116.318 43.8348 116.535 43.7305C116.761 43.5742 116.9 43.4656 116.952 43.4048L117.291 43.0269C117.343 42.9748 117.408 42.9227 117.486 42.8706C117.565 42.8185 117.638 42.7577 117.708 42.6882C117.847 42.5492 117.986 42.4537 118.125 42.4015H118.425C118.546 42.4015 118.629 42.4363 118.672 42.5058C118.707 42.6447 118.707 42.7664 118.672 42.8706C118.637 42.9748 118.594 43.0704 118.542 43.1572C118.481 43.2528 118.403 43.3483 118.307 43.4439C118.238 43.5742 118.16 43.6871 118.073 43.7826C118.029 43.8261 117.982 43.8738 117.929 43.926C117.886 43.9694 117.838 44.0215 117.786 44.0823C117.682 44.2039 117.56 44.2951 117.421 44.3559C117.378 44.408 117.334 44.4558 117.291 44.4993C117.256 44.5427 117.217 44.5861 117.174 44.6295L116.926 44.8771C116.831 44.9727 116.752 45.0682 116.692 45.1637C116.631 45.2593 116.553 45.3548 116.457 45.4504C116.362 45.5286 116.266 45.6067 116.171 45.6849C116.084 45.7631 115.992 45.8369 115.897 45.9064C115.714 46.0454 115.545 46.2148 115.389 46.4146C115.311 46.4493 115.241 46.4884 115.18 46.5318C115.146 46.5579 115.085 46.597 114.998 46.6491C114.781 46.7099 114.559 46.8358 114.333 47.0269C114.116 47.218 113.89 47.3961 113.656 47.5611C113.43 47.7175 113.191 47.787 112.939 47.7696C112.748 47.8565 112.583 47.8608 112.444 47.7826C112.305 47.7045 112.166 47.6219 112.027 47.5351C111.836 47.4135 111.654 47.2745 111.48 47.1181C111.306 46.9618 111.202 46.7446 111.167 46.4667C111.133 46.015 111.185 45.5894 111.324 45.1898C111.471 44.7816 111.576 44.382 111.636 43.9911C111.636 43.9477 111.662 43.7913 111.714 43.5221C111.775 43.2441 111.784 43.0617 111.741 42.9748C111.714 42.9401 111.693 42.8793 111.675 42.7924C111.667 42.7056 111.593 42.6187 111.454 42.5318C111.376 42.4884 111.341 42.4797 111.35 42.5058C111.358 42.5405 111.289 42.5579 111.141 42.5579C110.994 42.61 110.872 42.6795 110.776 42.7664C110.724 42.8098 110.668 42.8532 110.607 42.8966C110.555 42.9401 110.498 42.9835 110.438 43.0269C110.281 43.2094 110.086 43.3831 109.851 43.5481C109.643 43.6958 109.456 43.8782 109.291 44.0953C109.152 44.2517 109.022 44.408 108.9 44.5644C108.796 44.7034 108.657 44.8597 108.483 45.0335C107.997 45.5894 107.519 46.1019 107.05 46.5709C106.989 46.6404 106.928 46.7099 106.868 46.7794C106.815 46.8489 106.763 46.9184 106.711 46.9879C106.659 47.0573 106.603 47.1268 106.542 47.1963C106.49 47.2658 106.433 47.3353 106.372 47.4048C106.164 47.6654 105.938 47.9173 105.695 48.1605C105.591 48.3342 105.443 48.4993 105.252 48.6556C105.061 48.812 104.87 48.9249 104.679 48.9944C104.627 48.9596 104.57 48.9596 104.509 48.9944C104.448 49.0291 104.392 49.0465 104.34 49.0465C104.236 49.0031 104.153 48.9683 104.092 48.9422C104.032 48.9249 103.992 48.9118 103.975 48.9032C103.94 48.8858 103.914 48.8467 103.897 48.7859C103.723 48.6817 103.658 48.5123 103.701 48.2778C103.745 48.0432 103.784 47.8391 103.819 47.6654C103.906 47.2745 104.01 46.8836 104.131 46.4927C104.253 46.1019 104.388 45.7153 104.535 45.3331C104.683 44.9509 104.818 44.5687 104.939 44.1865C105.061 43.8044 105.165 43.4265 105.252 43.053C105.339 42.7577 105.426 42.4841 105.513 42.2322C105.599 41.9803 105.704 41.7153 105.825 41.4374C105.956 41.1594 106.038 40.9118 106.073 40.6947C106.108 40.4775 106.19 40.23 106.32 39.952C106.399 39.813 106.459 39.6828 106.503 39.5611C106.555 39.4135 106.607 39.2832 106.659 39.1703C106.859 38.8141 107.041 38.3842 107.206 37.8804C107.38 37.3679 107.562 36.9119 107.754 36.5123C107.962 35.9564 108.179 35.4178 108.405 34.8967C108.631 34.3755 108.883 33.863 109.161 33.3592C109.326 32.6904 109.595 32.0649 109.969 31.483C110.142 31.2571 110.26 31.0747 110.32 30.9357C110.399 30.762 110.472 30.6317 110.542 30.5449C110.75 30.293 110.985 30.0975 111.245 29.9585C111.497 29.8196 111.723 29.6241 111.923 29.3722C112.071 29.3027 112.205 29.2506 112.327 29.2159C112.396 29.1985 112.462 29.1811 112.522 29.1638C112.583 29.1377 112.644 29.1116 112.705 29.0856C112.757 29.1377 112.783 29.2419 112.783 29.3983C112.818 29.3983 112.826 29.4504 112.809 29.5546C112.792 29.6589 112.792 29.7457 112.809 29.8152C112.809 30.0584 112.787 30.2322 112.744 30.3364L112.627 30.623C112.609 30.762 112.6 30.8532 112.6 30.8967C112.6 30.9575 112.592 31.0313 112.574 31.1181C112.522 31.2832 112.501 31.3744 112.509 31.3918C112.518 31.4091 112.522 31.4395 112.522 31.483C112.522 31.5177 112.514 31.5959 112.496 31.7175C112.479 31.8391 112.47 31.926 112.47 31.9781C112.462 32.1518 112.414 32.3516 112.327 32.5774C112.257 32.7685 112.192 32.9596 112.131 33.1507C112.027 33.2723 111.966 33.3679 111.949 33.4374C111.932 33.5069 111.897 33.5503 111.845 33.5677C111.793 33.7153 111.741 33.863 111.688 34.0107C111.645 34.1496 111.602 34.2886 111.558 34.4276C111.471 34.6969 111.341 34.9575 111.167 35.2094C111.106 35.3918 111.015 35.5785 110.894 35.7696C110.833 35.8565 110.776 35.9477 110.724 36.0432C110.681 36.1301 110.637 36.217 110.594 36.3038L110.477 36.5514C110.425 36.6556 110.385 36.7381 110.359 36.7989C110.238 37.0248 110.112 37.255 109.982 37.4895C109.851 37.724 109.699 37.9368 109.526 38.1279C109.213 38.7881 108.883 39.4526 108.535 40.1214C108.188 40.7902 107.849 41.4374 107.519 42.0628C107.458 42.1583 107.406 42.2495 107.363 42.3364C107.319 42.4146 107.285 42.4884 107.258 42.5579C107.215 42.6534 107.185 42.762 107.167 42.8836C107.15 42.9879 107.102 43.0791 107.024 43.1572C106.998 43.2354 106.972 43.3136 106.946 43.3918C106.92 43.4613 106.898 43.5307 106.881 43.6002C106.846 43.7392 106.781 43.8695 106.685 43.9911C106.624 44.3299 106.516 44.6556 106.359 44.9683C106.212 45.2636 106.095 45.5807 106.008 45.9194ZM123.623 47.7175L123.467 47.1442C123.363 46.927 123.345 46.5883 123.415 46.1279L123.506 45.6719C123.523 45.6111 123.536 45.5329 123.545 45.4374C123.562 45.3418 123.58 45.2246 123.597 45.0856C123.615 44.9553 123.632 44.825 123.649 44.6947C123.675 44.5557 123.706 44.4167 123.741 44.2778C123.775 44.1388 123.801 43.9998 123.819 43.8608C123.845 43.7218 123.866 43.5829 123.884 43.4439C123.754 43.6437 123.628 43.8478 123.506 44.0563C123.384 44.2647 123.267 44.4819 123.154 44.7077C122.937 45.1333 122.668 45.5025 122.346 45.8152C122.277 46.0237 122.19 46.1583 122.086 46.2191C121.982 46.2712 121.877 46.3234 121.773 46.3755C121.669 46.4276 121.582 46.5535 121.513 46.7533C121.426 46.8402 121.343 46.9314 121.265 47.0269C121.187 47.1225 121.13 47.2398 121.096 47.3787C121.009 47.4135 120.922 47.483 120.835 47.5872C120.67 47.7522 120.566 47.8391 120.522 47.8478C120.479 47.8565 120.435 47.8825 120.392 47.926C120.218 48.0649 120.066 48.1692 119.936 48.2387C119.806 48.3082 119.654 48.3516 119.48 48.369C119.289 48.4037 119.041 48.4298 118.737 48.4471C118.59 48.4558 118.455 48.4645 118.333 48.4732C118.212 48.4819 118.108 48.4906 118.021 48.4993C117.908 48.4124 117.821 48.3603 117.76 48.3429C117.734 48.3342 117.695 48.3212 117.643 48.3038C117.599 48.2864 117.543 48.2647 117.473 48.2387C117.222 48.1344 117.1 48.0867 117.109 48.0953C117.1 48.0867 117.087 48.078 117.07 48.0693C117.043 48.0606 117.013 48.0476 116.978 48.0302C116.839 47.926 116.744 47.8434 116.692 47.7826C116.657 47.7392 116.596 47.6741 116.509 47.5872C116.223 47.1442 116.058 46.5709 116.014 45.8673C115.997 45.6241 116.04 45.3809 116.144 45.1377C116.249 44.8945 116.344 44.6773 116.431 44.4862C116.535 44.2691 116.648 44.0693 116.77 43.8869C116.839 43.7826 116.904 43.6827 116.965 43.5872C117.017 43.4917 117.065 43.4004 117.109 43.3136C117.213 43.1051 117.23 42.9705 117.161 42.9097C117.1 42.8402 117.117 42.7056 117.213 42.5058C117.256 42.3668 117.308 42.2452 117.369 42.1409L117.604 41.724C117.76 41.4461 117.925 41.1985 118.099 40.9813C118.255 40.7902 118.385 40.534 118.49 40.2126C118.577 39.9694 118.694 39.7826 118.842 39.6523C118.989 39.5221 119.167 39.4048 119.376 39.3006C119.463 39.3353 119.589 39.3223 119.754 39.2615C119.919 39.2007 120.045 39.1355 120.131 39.066C120.253 39.066 120.349 39.0313 120.418 38.9618C120.609 38.9271 120.709 38.9271 120.718 38.9618C120.726 38.9965 120.748 39.0139 120.783 39.0139C120.818 39.0226 120.865 39.0226 120.926 39.0139C120.987 39.0052 121.035 39.0052 121.07 39.0139C121.13 39.1963 121.174 39.3092 121.2 39.3527C121.235 39.3961 121.252 39.4395 121.252 39.483C121.252 39.5351 121.248 39.6046 121.239 39.6914C121.23 39.7783 121.217 39.8391 121.2 39.8738C121.104 40.0041 121.048 40.0867 121.03 40.1214L120.991 40.2126C120.939 40.2821 120.878 40.3646 120.809 40.4602C120.748 40.547 120.679 40.6513 120.6 40.7729L120.184 41.3852C120.088 41.5329 120.001 41.6285 119.923 41.6719C119.827 41.724 119.749 41.8196 119.688 41.9585C119.654 42.0193 119.628 42.0845 119.61 42.154C119.602 42.2148 119.576 42.2799 119.532 42.3494C119.332 42.7664 119.106 43.1876 118.855 43.6133C118.724 43.8304 118.598 44.0476 118.477 44.2647C118.364 44.4732 118.255 44.6773 118.151 44.8771C118.142 44.9466 118.129 45.0161 118.112 45.0856C118.095 45.1464 118.077 45.2115 118.06 45.281C118.016 45.4287 117.995 45.5546 117.995 45.6589C117.995 45.6849 117.986 45.8196 117.969 46.0628C117.951 46.306 117.96 46.4493 117.995 46.4927C118.099 46.6404 118.16 46.7055 118.177 46.6882C118.194 46.6708 118.212 46.6751 118.229 46.7012C118.299 46.8749 118.346 46.9748 118.372 47.0009C118.399 47.0269 118.455 47.0573 118.542 47.0921C118.611 47.1095 118.711 47.0964 118.842 47.053C118.972 47.0096 119.072 46.9705 119.141 46.9357C119.35 46.8315 119.506 46.7229 119.61 46.61C119.714 46.4971 119.819 46.3798 119.923 46.2582C120.184 45.9455 120.461 45.5807 120.757 45.1637C121.052 44.7468 121.33 44.382 121.591 44.0693C121.686 43.8608 121.812 43.6523 121.969 43.4439C122.134 43.218 122.26 43.0183 122.346 42.8445L122.711 42.1409C122.763 42.0454 122.82 41.9412 122.881 41.8282C122.941 41.7153 123.007 41.5937 123.076 41.4634C123.18 41.3158 123.289 41.1811 123.402 41.0595C123.515 40.9379 123.597 40.7598 123.649 40.5253C123.693 40.4037 123.758 40.2864 123.845 40.1735C123.888 40.1127 123.927 40.0606 123.962 40.0172C124.005 39.9651 124.04 39.9173 124.066 39.8738C124.197 39.7522 124.279 39.6567 124.314 39.5872C124.349 39.5177 124.405 39.4569 124.483 39.4048C124.674 39.3527 124.822 39.3136 124.926 39.2875C125.03 39.2615 125.161 39.2658 125.317 39.3006C125.456 39.2137 125.604 39.1703 125.76 39.1703C125.838 39.1703 125.912 39.1746 125.982 39.1833C126.06 39.1833 126.134 39.1876 126.203 39.1963C126.203 39.2832 126.225 39.3396 126.268 39.3657C126.312 39.3918 126.333 39.4395 126.333 39.509C126.403 39.6654 126.403 39.8565 126.333 40.0823C126.255 40.3342 126.212 40.5601 126.203 40.7598C126.16 40.9423 126.095 41.1029 126.008 41.2419C125.912 41.3983 125.838 41.5677 125.786 41.7501C125.751 41.8804 125.721 41.9846 125.695 42.0628C125.678 42.1409 125.665 42.1931 125.656 42.2191L125.578 42.5058C125.543 42.6621 125.508 42.8141 125.473 42.9618C125.439 43.1008 125.404 43.2398 125.369 43.3787C125.3 43.6567 125.248 43.9651 125.213 44.3038C125.213 44.3907 125.2 44.4819 125.174 44.5774C125.148 44.6643 125.135 44.7468 125.135 44.825C125.135 44.9118 125.139 45.0161 125.148 45.1377C125.156 45.2593 125.204 45.3375 125.291 45.3722C125.387 45.407 125.469 45.3983 125.539 45.3462C125.625 45.2767 125.717 45.2159 125.812 45.1637C125.873 45.1203 125.96 45.0421 126.073 44.9292C126.186 44.8163 126.273 44.7381 126.333 44.6947C126.42 44.6078 126.516 44.5383 126.62 44.4862C126.724 44.4341 126.82 44.3646 126.907 44.2778C127.046 44.1561 127.18 44.0345 127.311 43.9129C127.45 43.7826 127.58 43.6523 127.701 43.5221C127.962 43.2528 128.236 43.0356 128.522 42.8706C128.8 42.5753 129.083 42.3016 129.369 42.0497C129.656 41.7978 129.982 41.585 130.346 41.4113C130.485 41.6371 130.52 41.8239 130.451 41.9716C130.381 42.1192 130.294 42.2626 130.19 42.4015C130.147 42.445 130.086 42.4884 130.008 42.5318C129.912 42.5839 129.843 42.6274 129.799 42.6621L129.669 42.7924C129.617 42.8445 129.573 42.8706 129.539 42.8706C129.539 42.9401 129.517 42.9965 129.473 43.04L129.356 43.1572C129.243 43.331 129.122 43.496 128.991 43.6523C128.87 43.8 128.739 43.9433 128.6 44.0823C128.461 44.2213 128.323 44.3603 128.184 44.4993C128.053 44.6295 127.923 44.7642 127.793 44.9032C127.671 44.9466 127.597 45.0031 127.571 45.0725C127.545 45.1594 127.489 45.2332 127.402 45.294C127.367 45.3375 127.332 45.3766 127.298 45.4113C127.263 45.446 127.228 45.4808 127.193 45.5155C127.159 45.5503 127.124 45.585 127.089 45.6198C127.054 45.6545 127.02 45.6936 126.985 45.737C126.881 45.85 126.789 45.9672 126.711 46.0888C126.633 46.2017 126.524 46.3103 126.385 46.4146C126.299 46.5014 126.233 46.5926 126.19 46.6882C126.155 46.775 126.09 46.8662 125.995 46.9618C125.856 47.1008 125.756 47.1659 125.695 47.1572C125.643 47.1485 125.595 47.2311 125.552 47.4048C125.413 47.509 125.334 47.5829 125.317 47.6263C125.308 47.661 125.282 47.6741 125.239 47.6654C125.195 47.6827 125.135 47.6958 125.057 47.7045C124.97 47.7131 124.926 47.7349 124.926 47.7696C124.813 47.8217 124.722 47.8738 124.653 47.926C124.583 47.9868 124.501 48.0215 124.405 48.0302C124.179 48.0649 124.019 48.0519 123.923 47.9911C123.827 47.9303 123.728 47.8391 123.623 47.7175ZM135.819 42.5579C135.888 43.2007 135.888 43.7696 135.819 44.2647C135.749 44.7598 135.61 45.2593 135.402 45.7631C135.159 46.1453 134.872 46.4927 134.542 46.8054C134.49 46.8576 134.438 46.914 134.385 46.9748C134.342 47.0269 134.299 47.0834 134.255 47.1442C134.168 47.2571 134.064 47.3614 133.942 47.4569C133.856 47.5264 133.725 47.6002 133.552 47.6784C133.421 47.7392 133.308 47.8304 133.213 47.952C133.143 47.9694 133.078 47.9911 133.017 48.0172C132.957 48.0432 132.891 48.0736 132.822 48.1084C132.648 48.1518 132.522 48.1909 132.444 48.2256L132.197 48.3429C132.118 48.3776 132.04 48.3863 131.962 48.369C131.901 48.3516 131.823 48.3516 131.728 48.369C131.649 48.3776 131.576 48.4124 131.506 48.4732C131.445 48.5253 131.371 48.5687 131.285 48.6035C131.111 48.6556 130.954 48.6469 130.815 48.5774C130.676 48.5079 130.555 48.4124 130.451 48.2908C130.121 48.1692 129.899 48.0215 129.786 47.8478C129.673 47.6741 129.556 47.4917 129.434 47.3006C129.261 47.1268 129.152 46.9488 129.109 46.7664C129.065 46.5839 129.026 46.3798 128.991 46.154C128.948 45.8847 128.909 45.6154 128.874 45.3462C128.839 45.0769 128.809 44.8076 128.783 44.5383C128.766 44.382 128.766 44.217 128.783 44.0432C128.8 43.8695 128.8 43.6958 128.783 43.5221C128.766 43.2788 128.752 43.0096 128.744 42.7142C128.735 42.4189 128.757 42.167 128.809 41.9585C128.852 41.7761 128.896 41.6285 128.939 41.5155C128.983 41.3939 129.026 41.255 129.07 41.0986C129.139 40.8814 129.191 40.7034 129.226 40.5644C129.261 40.408 129.313 40.2474 129.382 40.0823C129.4 40.0389 129.417 39.9998 129.434 39.9651C129.452 39.9216 129.469 39.8825 129.486 39.8478C129.504 39.813 129.521 39.7783 129.539 39.7436C129.556 39.7088 129.573 39.6741 129.591 39.6393C129.617 39.5785 129.647 39.496 129.682 39.3918C129.717 39.2875 129.747 39.205 129.773 39.1442C129.808 39.0052 129.864 38.8662 129.942 38.7273C130.012 38.597 130.068 38.4493 130.112 38.2843C130.147 38.1627 130.177 38.0584 130.203 37.9716C130.229 37.8847 130.294 37.7978 130.399 37.711L130.594 37.1898C130.629 37.1029 130.663 37.0161 130.698 36.9292C130.733 36.8424 130.772 36.7555 130.815 36.6686C130.859 36.5818 130.898 36.4949 130.933 36.4081C130.967 36.3212 131.002 36.2343 131.037 36.1475C131.072 36.0606 131.106 35.9737 131.141 35.8869C131.176 35.8 131.215 35.7132 131.258 35.6263C131.415 35.4091 131.506 35.2745 131.532 35.2224L131.623 35.0009C131.675 34.9314 131.719 34.8706 131.754 34.8185C131.788 34.7664 131.814 34.7229 131.832 34.6882L132.457 33.6328C132.561 33.4591 132.67 33.2854 132.783 33.1116C132.896 32.9379 133.013 32.7685 133.135 32.6035C133.291 32.3863 133.447 32.1735 133.604 31.9651C133.76 31.7479 133.912 31.5307 134.06 31.3136C134.338 30.914 134.69 30.5014 135.115 30.0758C135.176 29.9716 135.263 29.8586 135.376 29.737C135.48 29.6154 135.584 29.4851 135.688 29.3462C135.749 29.2854 135.806 29.2246 135.858 29.1638C135.919 29.1029 135.975 29.0421 136.027 28.9813C136.123 28.8771 136.236 28.7729 136.366 28.6686C136.479 28.5731 136.574 28.4906 136.653 28.4211C136.739 28.3516 136.805 28.2951 136.848 28.2517C136.944 28.1562 137.087 28.104 137.278 28.0953C137.625 28.078 137.912 28.1692 138.138 28.369C138.364 28.5687 138.529 28.8163 138.633 29.1116C138.598 29.4157 138.607 29.711 138.659 29.9976C138.711 30.2843 138.694 30.5535 138.607 30.8054C138.451 31.1008 138.299 31.4048 138.151 31.7175C138.003 32.0302 137.86 32.3429 137.721 32.6556C137.582 32.977 137.426 33.2723 137.252 33.5416C137.174 33.6632 137.096 33.7892 137.017 33.9195C136.948 34.0497 136.878 34.1844 136.809 34.3234C136.705 34.5145 136.587 34.6969 136.457 34.8706C136.344 35.0183 136.236 35.218 136.131 35.4699C136.045 35.5568 135.975 35.6567 135.923 35.7696C135.88 35.8652 135.793 35.9651 135.662 36.0693C135.497 36.4341 135.263 36.7555 134.959 37.0335L134.359 38.2061C134.264 38.3972 134.16 38.5839 134.047 38.7664C133.942 38.9488 133.83 39.1268 133.708 39.3006C133.621 39.3179 133.552 39.3614 133.499 39.4309C133.447 39.5003 133.395 39.5785 133.343 39.6654C133.204 39.8391 133.065 40.0085 132.926 40.1735C132.787 40.3386 132.631 40.4993 132.457 40.6556C132.414 40.7946 132.314 40.9336 132.157 41.0725C131.992 41.2289 131.884 41.3505 131.832 41.4374C131.806 41.4721 131.775 41.5242 131.741 41.5937C131.706 41.6632 131.675 41.7153 131.649 41.7501C131.597 41.8369 131.549 41.8977 131.506 41.9325C131.463 41.9672 131.415 42.0193 131.363 42.0888C131.311 42.2278 131.267 42.3103 131.232 42.3364C131.206 42.3538 131.172 42.3842 131.128 42.4276C131.024 42.5839 130.963 42.6621 130.946 42.6621C130.928 42.6621 130.911 42.6708 130.894 42.6882C130.789 42.888 130.72 42.9922 130.685 43.0009C130.65 43.0096 130.624 43.0356 130.607 43.0791C130.616 43.3223 130.616 43.4873 130.607 43.5742C130.598 43.6176 130.59 43.661 130.581 43.7045C130.572 43.7479 130.564 43.7913 130.555 43.8348C130.598 43.9911 130.611 44.1692 130.594 44.369C130.585 44.4645 130.581 44.5644 130.581 44.6686C130.59 44.7642 130.598 44.8597 130.607 44.9553C130.624 45.1464 130.646 45.3244 130.672 45.4895C130.698 45.6545 130.737 45.8065 130.789 45.9455C130.842 46.1019 130.937 46.2365 131.076 46.3494C131.215 46.4623 131.38 46.5101 131.571 46.4927C131.641 46.4754 131.736 46.4406 131.858 46.3885C131.979 46.3364 132.075 46.293 132.144 46.2582C132.188 46.2235 132.231 46.1844 132.275 46.1409C132.318 46.0975 132.362 46.0497 132.405 45.9976C132.448 45.9455 132.492 45.8977 132.535 45.8543C132.579 45.8022 132.622 45.7544 132.666 45.711C132.857 45.4678 133.065 45.1724 133.291 44.825L133.89 43.8869C133.934 43.7479 133.973 43.6306 134.008 43.5351C134.042 43.4395 134.073 43.3657 134.099 43.3136C134.142 43.2267 134.186 43.1051 134.229 42.9488C134.273 42.749 134.286 42.5666 134.268 42.4015C134.26 42.2452 134.29 42.0888 134.359 41.9325C134.394 41.8282 134.477 41.6936 134.607 41.5286C134.737 41.3635 134.846 41.2376 134.933 41.1507C135.089 41.0117 135.185 40.9466 135.219 40.9553C135.245 40.964 135.28 40.9596 135.324 40.9423C135.61 40.9075 135.801 40.9162 135.897 40.9683C135.992 41.0204 136.131 41.0465 136.314 41.0465C136.366 41.0378 136.418 41.0291 136.47 41.0204C136.522 41.0031 136.579 40.99 136.64 40.9813C136.744 40.9553 136.861 40.9509 136.991 40.9683C137.13 40.9857 137.261 40.9987 137.382 41.0074C137.504 41.0161 137.634 41.0031 137.773 40.9683C137.999 40.9162 138.277 40.8901 138.607 40.8901C138.659 40.8901 138.716 40.8901 138.776 40.8901C138.837 40.8901 138.898 40.8945 138.959 40.9032C139.089 40.9118 139.224 40.8988 139.363 40.8641C139.519 40.8467 139.675 40.8076 139.832 40.7468C139.988 40.686 140.136 40.673 140.275 40.7077C140.396 40.7251 140.488 40.7946 140.548 40.9162C140.609 41.0378 140.631 41.1681 140.613 41.3071C140.596 41.3939 140.553 41.5025 140.483 41.6328C140.414 41.7631 140.344 41.8369 140.275 41.8543C140.136 41.8196 140.058 41.8109 140.04 41.8282C140.023 41.8456 139.997 41.8543 139.962 41.8543C139.858 41.8456 139.749 41.8152 139.636 41.7631L139.337 41.6458C139.093 41.6111 138.855 41.6198 138.62 41.6719C138.385 41.724 138.155 41.7848 137.929 41.8543L137.604 41.9716C137.543 41.9889 137.482 42.0107 137.421 42.0367C137.369 42.0541 137.313 42.0715 137.252 42.0888C137.182 42.1062 137.126 42.1149 137.083 42.1149C137.013 42.1149 136.957 42.1323 136.913 42.167C136.8 42.2018 136.692 42.2278 136.587 42.2452C136.492 42.2626 136.392 42.2886 136.288 42.3234C136.149 42.3581 136.071 42.3972 136.053 42.4406C136.045 42.4754 135.966 42.5145 135.819 42.5579ZM134.438 33.724C134.038 34.332 133.652 34.9531 133.278 35.5872C132.904 36.2213 132.535 36.8858 132.171 37.5807C132.118 37.6849 132.071 37.7935 132.027 37.9064C131.984 38.0193 131.936 38.1453 131.884 38.2843C131.797 38.3885 131.723 38.5318 131.662 38.7142C131.602 38.8966 131.545 39.066 131.493 39.2224C131.45 39.3353 131.406 39.4482 131.363 39.5611C131.319 39.6654 131.276 39.774 131.232 39.8869C131.146 40.104 131.119 40.3082 131.154 40.4993C131.354 40.3603 131.528 40.1648 131.675 39.9129L132.092 39.1703C132.197 39.066 132.275 38.9661 132.327 38.8706C132.388 38.7664 132.466 38.6578 132.561 38.5449C132.657 38.4406 132.735 38.3364 132.796 38.2322C132.857 38.1366 132.935 38.0411 133.03 37.9455C133.274 37.5981 133.486 37.2246 133.669 36.825C133.764 36.6252 133.86 36.4254 133.956 36.2256C134.06 36.0259 134.168 35.8261 134.281 35.6263C134.377 35.4439 134.485 35.2528 134.607 35.053C134.703 34.888 134.802 34.6969 134.907 34.4797L135.18 33.8282C135.224 33.724 135.267 33.6198 135.311 33.5155C135.354 33.4026 135.393 33.2897 135.428 33.1768C135.48 32.9075 135.545 32.7294 135.623 32.6426C135.71 32.547 135.758 32.4298 135.767 32.2908C135.515 32.4906 135.28 32.7208 135.063 32.9813L134.438 33.724Z" fill="#F07C29"/>
<line x1="45.5959" y1="15.8999" x2="45.5959" y2="75.4942" stroke="#2D3964" stroke-width="2.6684"/>
<circle cx="45.6083" cy="11.0079" r="1.77894" fill="#D9D9D9" stroke="#F07C29" stroke-width="2.6684"/>
<line x1="45.2533" y1="51.4753" x2="63.0067" y2="71.1969" stroke="#2D3964" stroke-width="2.6684"/>
<line x1="63.3972" y1="71.9363" x2="63.3972" y2="51.4785" stroke="#2D3964" stroke-width="2.6684"/>
<line x1="44.2617" y1="75.939" x2="166.119" y2="75.939" stroke="url(#paint5_linear_430_10871)" stroke-width="2.6684"/>
<path d="M151.89 76.8286L151.89 41.6946" stroke="#F07C29" stroke-width="2.6684"/>
<path d="M166.12 42.1394H142.104" stroke="#F07C29" stroke-width="2.6684"/>
<rect x="152.781" y="40.8052" width="13.342" height="36.4682" fill="white"/>
</g>
</g>
<defs>
<linearGradient id="paint0_linear_430_10871" x1="70.0898" y1="61.7987" x2="138.382" y2="65.5041" gradientUnits="userSpaceOnUse">
<stop stop-color="#6E4E7E"/>
<stop offset="1" stop-color="#5BE8DE"/>
</linearGradient>
<linearGradient id="paint1_linear_430_10871" x1="51.3912" y1="35.9512" x2="99.6055" y2="35.9512" gradientUnits="userSpaceOnUse">
<stop stop-color="#6E4E7E"/>
<stop offset="1" stop-color="#59E4DB"/>
</linearGradient>
<linearGradient id="paint2_linear_430_10871" x1="44.2646" y1="77.7732" x2="166.122" y2="77.7732" gradientUnits="userSpaceOnUse">
<stop stop-color="#6E4E7E"/>
<stop offset="1" stop-color="#5DDED8"/>
</linearGradient>
<linearGradient id="paint3_linear_430_10871" x1="70.0868" y1="61.7987" x2="138.379" y2="65.5041" gradientUnits="userSpaceOnUse">
<stop stop-color="#2D3964"/>
<stop offset="1" stop-color="#E29A6E"/>
</linearGradient>
<linearGradient id="paint4_linear_430_10871" x1="51.3883" y1="35.9512" x2="99.6025" y2="35.9512" gradientUnits="userSpaceOnUse">
<stop stop-color="#2D3964"/>
<stop offset="1" stop-color="#E29A6E"/>
</linearGradient>
<linearGradient id="paint5_linear_430_10871" x1="44.2617" y1="77.7732" x2="166.119" y2="77.7732" gradientUnits="userSpaceOnUse">
<stop stop-color="#2D3964"/>
<stop offset="1" stop-color="#E29A6E"/>
</linearGradient>
<clipPath id="clip0_430_10871">
<rect width="180.562" height="89.8362" fill="white" transform="translate(0.68457 0.778809)"/>
</clipPath>
<clipPath id="clip1_430_10871">
<rect width="180.562" height="89.8362" fill="white" transform="translate(0.681641 0.778809)"/>
</clipPath>
</defs>
</svg>
